<svg xmlns="http://www.w3.org/2000/svg" xmlns:xlink="http://www.w3.org/1999/xlink" viewBox="0,0,256,256" width="96px" height="96px" fill-rule="nonzero"><g transform=""><g fill="#521ae3" fill-rule="nonzero" stroke="none" stroke-width="1" stroke-linecap="butt" stroke-linejoin="miter" stroke-miterlimit="10" stroke-dasharray="" stroke-dashoffset="0" font-family="none" font-weight="none" font-size="none" text-anchor="none" style="mix-blend-mode: normal"><path d="M0,256v-256h256v256z" id="bgRectangle"></path></g><g fill="none" fill-rule="nonzero" stroke="#a2d5ff" stroke-width="5.33333" stroke-linecap="butt" stroke-linejoin="miter" stroke-miterlimit="10" stroke-dasharray="" stroke-dashoffset="0" font-family="none" font-weight="none" font-size="none" text-anchor="none" style="mix-blend-mode: normal"><path d="M65.75076,252.49848c-34.37931,0 -62.24924,-27.86993 -62.24924,-62.24924v-124.49848c0,-34.37931 27.86993,-62.24924 62.24924,-62.24924h124.49848c34.37931,0 62.24924,27.86993 62.24924,62.24924v124.49848c0,34.37931 -27.86993,62.24924 -62.24924,62.24924z" id="shape"></path></g><g fill="none" fill-rule="nonzero" stroke="none" stroke-width="none" stroke-linecap="none" stroke-linejoin="none" stroke-miterlimit="10" stroke-dasharray="" stroke-dashoffset="0" font-family="none" font-weight="none" font-size="none" text-anchor="none" style="mix-blend-mode: normal"><path transform="scale(5.33333,5.33333)" d="M43.5,29c0,3 -3,3 -3,3c0,0 -1.5,5.6 -2,7c-3,8 -5,9 -10.5,9c-4.02548,0 -6.17606,-0.53568 -8.21606,-3.95948c-2.61026,-0.81982 -4.20758,-3.00357 -6.28394,-8.54052c-0.2,-0.5 -0.4,-1.3 -0.7,-2.3l2.46214,-1.21549c-0.70951,-0.07412 -2.76214,-0.503 -2.76214,-2.98451c0,-1.88557 1.18513,-2.58602 2.06562,-2.84621l-0.56562,-2.95379c-0.1,-0.6 0.3,-1.2 1,-1.2h0.5v-1l0.30847,-3.87794c-6.29539,-0.5797 -10.30847,-1.62206 -10.30847,-1.62206l10.4375,0l0.2625,-3.3c0.00437,-0.04589 0.00946,-0.09155 0.01525,-0.13695l-4.31525,-0.86305l0.3,-3c0.2,-2.1 1.9,-3.7 4,-3.7h15.5c2.1,0 3.8,1.6 4,3.7l0.02658,0.3h0.07342c2.1,0 3.8,1.6 4,3.7l0.2625,3.3h2.4375c0,0 -0.85554,0.22222 -2.39625,0.51851l0.39625,4.98149v5c0,0 3,0 3,3zM12.8,33.2c-0.6,-2.1 -1.3,-4.7 -1.3,-4.7c0,0 -3,0 -3,-3c0,-3 3,-3 3,-3v-5.5z" id="strokeMainSVG" fill="#7259f8" stroke="#7259f8" stroke-width="3" stroke-linecap="butt" stroke-linejoin="round"></path><g transform="scale(5.33333,5.33333)"><path d="M40.5,26v-5l-0.7,-8.8c-0.2,-2.1 -1.9,-3.7 -4,-3.7h-15.6c-2.1,0 -3.8,1.6 -4,3.7l-0.7,8.8v5c0,0 -3,0 -3,3c0,3 3,3 3,3c0,0 1.5,5.6 2,7c3,8 5,9 10.5,9c5.5,0 7.5,-1 10.5,-9c0.5,-1.4 2,-7 2,-7c0,0 3,0 3,-3c0,-3 -3,-3 -3,-3z" fill="#82cfff" stroke="none" stroke-width="1" stroke-linecap="butt" stroke-linejoin="miter"></path><path d="M36.4,16.1l-0.7,-7.9c-0.2,-2.1 -1.9,-3.7 -4,-3.7h-15.5c-2.1,0 -3.8,1.6 -4,3.7l-0.3,3" fill="none" stroke="#18193f" stroke-width="3" stroke-linecap="round" stroke-linejoin="round"></path><path d="M12.8,33.2c-0.6,-2.1 -1.3,-4.7 -1.3,-4.7c0,0 -3,0 -3,-3c0,-3 3,-3 3,-3v-5.5" fill="none" stroke="#18193f" stroke-width="3" stroke-linecap="round" stroke-linejoin="round"></path><path d="M36.5,21.5v1c0,0 3,0 3,3c0,3 -3,3 -3,3c0,0 -1.5,5.6 -2,7c-3,8 -5,9 -10.5,9c-5.5,0 -7.5,-1 -10.5,-9c-0.2,-0.5 -0.4,-1.3 -0.7,-2.3" fill="none" stroke="#18193f" stroke-width="3" stroke-linecap="round" stroke-linejoin="round"></path><path d="M42.5,15.5c0,0 -7.7,2 -18.5,2c-10.8,0 -18.5,-2 -18.5,-2" fill="none" stroke="#18193f" stroke-width="3" stroke-linecap="round" stroke-linejoin="round"></path><path d="M26.5,43.5h-5c-1.7,0 -3,-1.3 -3,-3v-3c0,-1.1 0.9,-2 2,-2h7c1.1,0 2,0.9 2,2v3c0,1.7 -1.3,3 -3,3z" fill="none" stroke="#18193f" stroke-width="3" stroke-linecap="round" stroke-linejoin="round"></path><path d="M12,11.5h23.5" fill="none" stroke="#18193f" stroke-width="3" stroke-linecap="round" stroke-linejoin="round"></path><path d="M16.5,29h4.8c0.7,0 1.3,-0.5 1.5,-1.1l1.2,-5.9h-9c-0.7,0 -1.1,0.6 -1,1.2l0.9,4.7c0.2,0.6 0.9,1.1 1.6,1.1z" fill="#18193f" stroke="none" stroke-width="1" stroke-linecap="butt" stroke-linejoin="miter"></path><path d="M33,27.9l0.9,-4.7c0.2,-0.6 -0.3,-1.2 -1,-1.2h-9l1.2,5.9c0.2,0.7 0.8,1.1 1.5,1.1h4.8c0.8,0 1.4,-0.5 1.6,-1.1z" fill="#18193f" stroke="none" stroke-width="1" stroke-linecap="butt" stroke-linejoin="miter"></path><path d="M20.2,23.5h7.6" fill="none" stroke="#18193f" stroke-width="3" stroke-linecap="round" stroke-linejoin="round"></path></g></g></g></svg>